<mxfile host="65bd71144e">
    <diagram id="2fCOE9Vusk7wecw-LUUj" name="Page-1">
        <mxGraphModel dx="986" dy="576" grid="1" gridSize="10" guides="1" tooltips="1" connect="1" arrows="1" fold="1" page="1" pageScale="1" pageWidth="850" pageHeight="1100" math="0" shadow="0">
            <root>
                <mxCell id="0"/>
                <mxCell id="1" parent="0"/>
                <mxCell id="4" value="" style="edgeStyle=none;html=1;" parent="1" source="2" target="3" edge="1">
                    <mxGeometry relative="1" as="geometry"/>
                </mxCell>
                <mxCell id="2" value="inicio" style="ellipse;whiteSpace=wrap;html=1;fillColor=#1A3300;" parent="1" vertex="1">
                    <mxGeometry x="365" y="20" width="120" height="80" as="geometry"/>
                </mxCell>
                <mxCell id="3" value="a , b , c" style="shape=parallelogram;perimeter=parallelogramPerimeter;whiteSpace=wrap;html=1;fixedSize=1;fillColor=#333300;" parent="1" vertex="1">
                    <mxGeometry x="365" y="130" width="120" height="60" as="geometry"/>
                </mxCell>
                <mxCell id="8" value="a&amp;gt;b" style="rhombus;whiteSpace=wrap;html=1;fillColor=#331A00;" parent="1" vertex="1">
                    <mxGeometry x="385" y="220" width="80" height="80" as="geometry"/>
                </mxCell>
                <mxCell id="9" value="" style="endArrow=none;html=1;exitX=1;exitY=0.5;exitDx=0;exitDy=0;" parent="1" source="8" edge="1">
                    <mxGeometry width="50" height="50" relative="1" as="geometry">
                        <mxPoint x="490" y="290" as="sourcePoint"/>
                        <mxPoint x="680" y="260" as="targetPoint"/>
                    </mxGeometry>
                </mxCell>
                <mxCell id="10" value="" style="endArrow=none;html=1;exitX=0.5;exitY=0;exitDx=0;exitDy=0;" parent="1" source="24" edge="1">
                    <mxGeometry width="50" height="50" relative="1" as="geometry">
                        <mxPoint x="520" y="290" as="sourcePoint"/>
                        <mxPoint x="680" y="260" as="targetPoint"/>
                    </mxGeometry>
                </mxCell>
                <mxCell id="12" value="" style="endArrow=none;html=1;entryX=0;entryY=0.5;entryDx=0;entryDy=0;" parent="1" target="8" edge="1">
                    <mxGeometry width="50" height="50" relative="1" as="geometry">
                        <mxPoint x="190" y="260" as="sourcePoint"/>
                        <mxPoint x="365" y="260" as="targetPoint"/>
                    </mxGeometry>
                </mxCell>
                <mxCell id="13" value="" style="endArrow=none;html=1;exitX=0.5;exitY=0;exitDx=0;exitDy=0;" parent="1" source="33" edge="1">
                    <mxGeometry width="50" height="50" relative="1" as="geometry">
                        <mxPoint x="189.5" y="280" as="sourcePoint"/>
                        <mxPoint x="189.5" y="260" as="targetPoint"/>
                    </mxGeometry>
                </mxCell>
                <mxCell id="16" value="" style="endArrow=none;html=1;entryX=0.5;entryY=1;entryDx=0;entryDy=0;" parent="1" source="8" target="3" edge="1">
                    <mxGeometry width="50" height="50" relative="1" as="geometry">
                        <mxPoint x="400" y="300" as="sourcePoint"/>
                        <mxPoint x="450" y="250" as="targetPoint"/>
                    </mxGeometry>
                </mxCell>
                <mxCell id="24" value="b&amp;gt;c" style="rhombus;whiteSpace=wrap;html=1;fillColor=#330000;" vertex="1" parent="1">
                    <mxGeometry x="640" y="300" width="80" height="80" as="geometry"/>
                </mxCell>
                <mxCell id="25" value="a&amp;lt;c" style="rhombus;whiteSpace=wrap;html=1;fillColor=#33001A;" vertex="1" parent="1">
                    <mxGeometry x="500" y="360" width="80" height="80" as="geometry"/>
                </mxCell>
                <mxCell id="28" value="" style="endArrow=none;html=1;exitX=1;exitY=0.5;exitDx=0;exitDy=0;" edge="1" parent="1" source="24">
                    <mxGeometry width="50" height="50" relative="1" as="geometry">
                        <mxPoint x="630" y="330" as="sourcePoint"/>
                        <mxPoint x="820" y="340" as="targetPoint"/>
                    </mxGeometry>
                </mxCell>
                <mxCell id="29" value="" style="endArrow=none;html=1;entryX=0;entryY=0.5;entryDx=0;entryDy=0;" edge="1" parent="1" target="24">
                    <mxGeometry width="50" height="50" relative="1" as="geometry">
                        <mxPoint x="540" y="340" as="sourcePoint"/>
                        <mxPoint x="475" y="320" as="targetPoint"/>
                    </mxGeometry>
                </mxCell>
                <mxCell id="30" value="" style="endArrow=none;html=1;exitX=0.5;exitY=0;exitDx=0;exitDy=0;" edge="1" parent="1" source="32">
                    <mxGeometry width="50" height="50" relative="1" as="geometry">
                        <mxPoint x="600" y="370" as="sourcePoint"/>
                        <mxPoint x="820" y="340" as="targetPoint"/>
                    </mxGeometry>
                </mxCell>
                <mxCell id="31" value="" style="endArrow=none;html=1;exitX=0.5;exitY=0;exitDx=0;exitDy=0;" edge="1" parent="1" source="25">
                    <mxGeometry width="50" height="50" relative="1" as="geometry">
                        <mxPoint x="460" y="370" as="sourcePoint"/>
                        <mxPoint x="540" y="340" as="targetPoint"/>
                    </mxGeometry>
                </mxCell>
                <mxCell id="32" value="Numeros" style="shape=document;whiteSpace=wrap;html=1;boundedLbl=1;fillColor=#000033;" vertex="1" parent="1">
                    <mxGeometry x="760" y="400" width="120" height="80" as="geometry"/>
                </mxCell>
                <mxCell id="33" value="a&amp;gt;c" style="rhombus;whiteSpace=wrap;html=1;fillColor=#330033;" vertex="1" parent="1">
                    <mxGeometry x="150" y="290" width="80" height="80" as="geometry"/>
                </mxCell>
                <mxCell id="34" value="b&amp;gt;c" style="rhombus;whiteSpace=wrap;html=1;fillColor=#330066;" vertex="1" parent="1">
                    <mxGeometry x="250" y="360" width="80" height="80" as="geometry"/>
                </mxCell>
                <mxCell id="35" value="" style="endArrow=none;html=1;exitX=1;exitY=0.5;exitDx=0;exitDy=0;" edge="1" parent="1" source="33">
                    <mxGeometry width="50" height="50" relative="1" as="geometry">
                        <mxPoint x="260" y="345" as="sourcePoint"/>
                        <mxPoint x="290" y="330" as="targetPoint"/>
                    </mxGeometry>
                </mxCell>
                <mxCell id="36" value="" style="endArrow=none;html=1;entryX=0.5;entryY=0;entryDx=0;entryDy=0;" edge="1" parent="1" target="34">
                    <mxGeometry width="50" height="50" relative="1" as="geometry">
                        <mxPoint x="290" y="330" as="sourcePoint"/>
                        <mxPoint x="310" y="360" as="targetPoint"/>
                    </mxGeometry>
                </mxCell>
                <mxCell id="39" value="" style="endArrow=none;html=1;exitX=1;exitY=0.5;exitDx=0;exitDy=0;" edge="1" parent="1" source="34">
                    <mxGeometry width="50" height="50" relative="1" as="geometry">
                        <mxPoint x="350" y="410" as="sourcePoint"/>
                        <mxPoint x="360" y="400" as="targetPoint"/>
                    </mxGeometry>
                </mxCell>
                <mxCell id="40" value="" style="endArrow=none;html=1;exitX=0.5;exitY=0;exitDx=0;exitDy=0;" edge="1" parent="1" source="44">
                    <mxGeometry width="50" height="50" relative="1" as="geometry">
                        <mxPoint x="350" y="470" as="sourcePoint"/>
                        <mxPoint x="360" y="400" as="targetPoint"/>
                    </mxGeometry>
                </mxCell>
                <mxCell id="42" value="" style="endArrow=none;html=1;exitX=0.4;exitY=0;exitDx=0;exitDy=0;exitPerimeter=0;" edge="1" parent="1" source="43">
                    <mxGeometry width="50" height="50" relative="1" as="geometry">
                        <mxPoint x="470" y="490" as="sourcePoint"/>
                        <mxPoint x="470" y="400" as="targetPoint"/>
                    </mxGeometry>
                </mxCell>
                <mxCell id="43" value="Numeros" style="shape=document;whiteSpace=wrap;html=1;boundedLbl=1;fillColor=#FF33FF;" vertex="1" parent="1">
                    <mxGeometry x="440" y="460" width="75" height="60" as="geometry"/>
                </mxCell>
                <mxCell id="44" value="Numeros" style="shape=document;whiteSpace=wrap;html=1;boundedLbl=1;fillColor=#009999;" vertex="1" parent="1">
                    <mxGeometry x="320" y="465" width="80" height="50" as="geometry"/>
                </mxCell>
                <mxCell id="46" value="" style="endArrow=none;html=1;entryX=0;entryY=0.5;entryDx=0;entryDy=0;" edge="1" parent="1" target="25">
                    <mxGeometry width="50" height="50" relative="1" as="geometry">
                        <mxPoint x="470" y="400" as="sourcePoint"/>
                        <mxPoint x="475" y="350" as="targetPoint"/>
                    </mxGeometry>
                </mxCell>
                <mxCell id="48" value="" style="endArrow=none;html=1;exitX=0;exitY=0.5;exitDx=0;exitDy=0;" edge="1" parent="1" source="33">
                    <mxGeometry width="50" height="50" relative="1" as="geometry">
                        <mxPoint x="440" y="370" as="sourcePoint"/>
                        <mxPoint x="80" y="330" as="targetPoint"/>
                    </mxGeometry>
                </mxCell>
                <mxCell id="49" value="" style="endArrow=none;html=1;" edge="1" parent="1" source="54">
                    <mxGeometry width="50" height="50" relative="1" as="geometry">
                        <mxPoint x="50" y="360" as="sourcePoint"/>
                        <mxPoint x="80" y="330" as="targetPoint"/>
                    </mxGeometry>
                </mxCell>
                <mxCell id="54" value="Numeros" style="shape=document;whiteSpace=wrap;html=1;boundedLbl=1;fillColor=#CC6600;" vertex="1" parent="1">
                    <mxGeometry x="40" y="420" width="80" height="50" as="geometry"/>
                </mxCell>
                <mxCell id="55" value="" style="endArrow=none;html=1;entryX=0;entryY=0.5;entryDx=0;entryDy=0;" edge="1" parent="1" target="34">
                    <mxGeometry width="50" height="50" relative="1" as="geometry">
                        <mxPoint x="200" y="400" as="sourcePoint"/>
                        <mxPoint x="250" y="460" as="targetPoint"/>
                    </mxGeometry>
                </mxCell>
                <mxCell id="56" value="" style="endArrow=none;html=1;exitX=0.5;exitY=0;exitDx=0;exitDy=0;" edge="1" parent="1" source="57">
                    <mxGeometry width="50" height="50" relative="1" as="geometry">
                        <mxPoint x="200" y="510" as="sourcePoint"/>
                        <mxPoint x="200" y="400" as="targetPoint"/>
                    </mxGeometry>
                </mxCell>
                <mxCell id="57" value="Numeros" style="shape=document;whiteSpace=wrap;html=1;boundedLbl=1;fillColor=#00CC66;" vertex="1" parent="1">
                    <mxGeometry x="160" y="490" width="80" height="70" as="geometry"/>
                </mxCell>
                <mxCell id="60" value="" style="endArrow=none;html=1;entryX=0.51;entryY=0.915;entryDx=0;entryDy=0;entryPerimeter=0;" edge="1" parent="1" target="54">
                    <mxGeometry width="50" height="50" relative="1" as="geometry">
                        <mxPoint x="80" y="660" as="sourcePoint"/>
                        <mxPoint x="105" y="525" as="targetPoint"/>
                    </mxGeometry>
                </mxCell>
                <mxCell id="61" value="" style="endArrow=none;html=1;entryX=0.505;entryY=0.863;entryDx=0;entryDy=0;entryPerimeter=0;" edge="1" parent="1" target="57">
                    <mxGeometry width="50" height="50" relative="1" as="geometry">
                        <mxPoint x="200" y="660" as="sourcePoint"/>
                        <mxPoint x="390" y="610" as="targetPoint"/>
                    </mxGeometry>
                </mxCell>
                <mxCell id="62" value="" style="endArrow=none;html=1;entryX=0.515;entryY=0.876;entryDx=0;entryDy=0;entryPerimeter=0;" edge="1" parent="1" target="44">
                    <mxGeometry width="50" height="50" relative="1" as="geometry">
                        <mxPoint x="361" y="660" as="sourcePoint"/>
                        <mxPoint x="390" y="610" as="targetPoint"/>
                    </mxGeometry>
                </mxCell>
                <mxCell id="63" value="" style="endArrow=none;html=1;entryX=0.507;entryY=0.88;entryDx=0;entryDy=0;entryPerimeter=0;" edge="1" parent="1" target="43">
                    <mxGeometry width="50" height="50" relative="1" as="geometry">
                        <mxPoint x="478" y="660" as="sourcePoint"/>
                        <mxPoint x="479" y="500" as="targetPoint"/>
                    </mxGeometry>
                </mxCell>
                <mxCell id="64" value="" style="endArrow=none;html=1;exitX=1;exitY=0.5;exitDx=0;exitDy=0;" edge="1" parent="1" source="25">
                    <mxGeometry width="50" height="50" relative="1" as="geometry">
                        <mxPoint x="630" y="440" as="sourcePoint"/>
                        <mxPoint x="660" y="400" as="targetPoint"/>
                        <Array as="points">
                            <mxPoint x="650" y="400"/>
                        </Array>
                    </mxGeometry>
                </mxCell>
                <mxCell id="65" value="" style="endArrow=none;html=1;exitX=0.587;exitY=-0.02;exitDx=0;exitDy=0;exitPerimeter=0;" edge="1" parent="1" source="66">
                    <mxGeometry width="50" height="50" relative="1" as="geometry">
                        <mxPoint x="660" y="520" as="sourcePoint"/>
                        <mxPoint x="663" y="400" as="targetPoint"/>
                    </mxGeometry>
                </mxCell>
                <mxCell id="66" value="Numeros" style="shape=document;whiteSpace=wrap;html=1;boundedLbl=1;fillColor=#99004D;" vertex="1" parent="1">
                    <mxGeometry x="610" y="470" width="90" height="60" as="geometry"/>
                </mxCell>
                <mxCell id="67" value="" style="endArrow=none;html=1;entryX=0.587;entryY=0.833;entryDx=0;entryDy=0;entryPerimeter=0;" edge="1" parent="1" target="66">
                    <mxGeometry width="50" height="50" relative="1" as="geometry">
                        <mxPoint x="663" y="660" as="sourcePoint"/>
                        <mxPoint x="770" y="610" as="targetPoint"/>
                    </mxGeometry>
                </mxCell>
                <mxCell id="68" value="" style="endArrow=none;html=1;entryX=0.53;entryY=0.89;entryDx=0;entryDy=0;entryPerimeter=0;" edge="1" parent="1" target="32">
                    <mxGeometry width="50" height="50" relative="1" as="geometry">
                        <mxPoint x="820" y="660" as="sourcePoint"/>
                        <mxPoint x="770" y="610" as="targetPoint"/>
                    </mxGeometry>
                </mxCell>
                <mxCell id="69" value="" style="endArrow=none;html=1;" edge="1" parent="1">
                    <mxGeometry width="50" height="50" relative="1" as="geometry">
                        <mxPoint x="80" y="660" as="sourcePoint"/>
                        <mxPoint x="820" y="660" as="targetPoint"/>
                    </mxGeometry>
                </mxCell>
                <mxCell id="70" value="" style="endArrow=none;html=1;exitX=0.458;exitY=0.125;exitDx=0;exitDy=0;exitPerimeter=0;" edge="1" parent="1" source="71">
                    <mxGeometry width="50" height="50" relative="1" as="geometry">
                        <mxPoint x="440" y="760" as="sourcePoint"/>
                        <mxPoint x="440" y="660" as="targetPoint"/>
                    </mxGeometry>
                </mxCell>
                <mxCell id="71" value="FIN" style="ellipse;whiteSpace=wrap;html=1;fillColor=#0000CC;" vertex="1" parent="1">
                    <mxGeometry x="385" y="750" width="120" height="80" as="geometry"/>
                </mxCell>
            </root>
        </mxGraphModel>
    </diagram>
</mxfile>